<?xml version="1.0" standalone="yes"?>
<!DOCTYPE svg PUBLIC "-//W3C//DTD SVG 1.1//EN"
 "http://www.w3.org/Graphics/SVG/1.1/DTD/svg11.dtd">
<svg xmlns="http://www.w3.org/2000/svg" version="1.1"
  width="100%" height="100%" viewBox="0 0 1024 768"
  style="fill: none; font-family: Helvetica;
 font: Helvetica;
">

<!-- Creator: NGspice -->

<rect x="0" y="0" width="1024" height="768" fill="white" stroke="none"/>
<text stroke="none" fill="black" font-size="16" x="358" y="752">
frequency
</text>
<text stroke="none" fill="black" font-size="16" x="10" y="16">
ac1: ** sch_path: /foss/designs/ldo_project/ldo_top.sch
</text>
<path stroke="black" d="M70 704l0 -639"/>
<text stroke="none" fill="black" font-size="16" x="65" y="728">
1
</text>
<path stroke="black" stroke-dasharray="1,2" d="M129 704l0 -639M146 704l0 -639M158 704l0 -639"/>
<path stroke="black" d="M168 704l0 -639"/>
<text stroke="none" fill="black" font-size="16" x="158" y="728">
10
</text>
<path stroke="black" stroke-dasharray="1,2" d="M227 704l0 -639M244 704l0 -639M256 704l0 -639"/>
<path stroke="black" d="M266 704l0 -639"/>
<text stroke="none" fill="black" font-size="16" x="251" y="728">
100
</text>
<path stroke="black" stroke-dasharray="1,2" d="M325 704l0 -639M342 704l0 -639M354 704l0 -639"/>
<path stroke="black" d="M364 704l0 -639"/>
<text stroke="none" fill="black" font-size="16" x="344" y="728">
10^3
</text>
<path stroke="black" stroke-dasharray="1,2" d="M423 704l0 -639M440 704l0 -639M452 704l0 -639"/>
<path stroke="black" d="M462 704l0 -639"/>
<text stroke="none" fill="black" font-size="16" x="442" y="728">
10^4
</text>
<path stroke="black" stroke-dasharray="1,2" d="M521 704l0 -639M538 704l0 -639M550 704l0 -639"/>
<path stroke="black" d="M560 704l0 -639"/>
<text stroke="none" fill="black" font-size="16" x="540" y="728">
10^5
</text>
<path stroke="black" stroke-dasharray="1,2" d="M619 704l0 -639M636 704l0 -639M648 704l0 -639"/>
<path stroke="black" d="M658 704l0 -639"/>
<text stroke="none" fill="black" font-size="16" x="638" y="728">
10^6
</text>
<path stroke="black" stroke-dasharray="1,2" d="M717 704l0 -639M734 704l0 -639M746 704l0 -639"/>
<path stroke="black" d="M756 704l0 -639"/>
<text stroke="none" fill="black" font-size="16" x="736" y="728">
10^7
</text>
<path stroke="black" stroke-dasharray="1,2" d="M815 704l0 -639M832 704l0 -639M844 704l0 -639"/>
<path stroke="black" d="M854 704l0 -639"/>
<text stroke="none" fill="black" font-size="16" x="834" y="728">
10^8
</text>
<path stroke="black" stroke-dasharray="1,2" d="M913 704l0 -639M930 704l0 -639M942 704l0 -639"/>
<path stroke="black" d="M952 704l0 -639"/>
<text stroke="none" fill="black" font-size="16" x="932" y="728">
10^9
</text>
<text stroke="none" fill="black" font-size="16" x="614" y="752">
Hz
</text>
<path stroke="black" stroke-dasharray="1,2" d="M70 704l882 0"/>
<text stroke="none" fill="black" font-size="16" x="8" y="712">
-700.0
</text>
<path stroke="black" stroke-dasharray="1,2" d="M70 633l882 0"/>
<text stroke="none" fill="black" font-size="16" x="8" y="641">
-600.0
</text>
<path stroke="black" stroke-dasharray="1,2" d="M70 562l882 0"/>
<text stroke="none" fill="black" font-size="16" x="8" y="570">
-500.0
</text>
<path stroke="black" stroke-dasharray="1,2" d="M70 491l882 0"/>
<text stroke="none" fill="black" font-size="16" x="8" y="499">
-400.0
</text>
<path stroke="black" stroke-dasharray="1,2" d="M70 420l882 0"/>
<text stroke="none" fill="black" font-size="16" x="8" y="428">
-300.0
</text>
<path stroke="black" stroke-dasharray="1,2" d="M70 349l882 0"/>
<text stroke="none" fill="black" font-size="16" x="8" y="357">
-200.0
</text>
<path stroke="black" stroke-dasharray="1,2" d="M70 278l882 0"/>
<text stroke="none" fill="black" font-size="16" x="8" y="286">
-100.0
</text>
<path stroke="black" d="M70 207l882 0"/>
<text stroke="none" fill="black" font-size="16" x="38" y="215">
0.0
</text>
<path stroke="black" stroke-dasharray="1,2" d="M70 136l882 0"/>
<text stroke="none" fill="black" font-size="16" x="18" y="144">
100.0
</text>
<path stroke="black" stroke-dasharray="1,2" d="M70 65l882 0"/>
<text stroke="none" fill="black" font-size="16" x="18" y="73">
200.0
</text>
<text stroke="none" fill="black" font-size="16" x="10" y="32">
     
</text>
<path stroke="red" d="M441 23l44 0"/>
<text stroke="none" fill="black" font-size="16" x="495" y="32">
t_db
</text>
<path stroke="red" d="M70 147l167 0 4 1 25 0 5 1 10 0 5 1 4 0 5 1 5 0 5 1 5 0 10 2 5 0 10 2 4 0 10 2 5 0 10 2 5 0 15 3 4 0 10 2 5 0 15 3 5 0 10 2 4 0 10 2 5 0 15 3 5 0 10 2 4 0 15 3 5 0 10 2 5 0 10 2 4 1 5 0 10 2 5 0 15 3 5 0 5 1 4 1 5 0 15 3"/>
<path stroke="red" d="M604 195l5 0 10 2 5 0 5 1 4 1 5 1 5 0 15 3 5 0 15 3 4 1 45 9 4 1 5 2 10 2 5 2 10 2 5 2 10 2 4 2 10 2 5 2 10 2 5 2 15 3 4 1 10 2 20 0 5 4 5 5 5 4 4 4 10 8 5 3 10 8 5 3 5 4 5 5 5 6 4 7 5 -4 5 -2 15 0"/>
<path stroke="blue" d="M70 23l44 0"/>
<text stroke="none" fill="black" font-size="16" x="124" y="32">
t_ph
</text>
<path stroke="blue" d="M70 80l59 0 5 1 19 0 5 1 10 0 5 1 5 0 5 1 5 0 4 1 5 1 5 0 20 4 5 2 10 2 4 2 25 10 5 3 10 4 5 3 4 2 25 10 5 1 5 2 10 2 4 1 15 3 5 0 10 2 10 0 5 1 4 0 5 1 15 0 5 1 34 0 5 1 64 0 5 1 34 0 5 1 20 0 4 1 10 0 5 1 5 0 5 1 5 0"/>
<path stroke="blue" d="M614 148l10 2 5 0 4 1 15 3 5 2 5 1 20 8 4 2 5 2 10 6 5 2 25 15 4 3 30 18 5 4 5 3 5 4 4 3 10 8 20 20 15 18 4 7 10 14 5 9 5 11 5 17 5 35 5 38 5 19 5 11 4 7 5 6 15 15 5 4 10 10 5 7 5 14 4 59 5 44 5 12 15 24"/>
</svg>
