<?xml version="1.0" standalone="yes"?>
<!DOCTYPE svg PUBLIC "-//W3C//DTD SVG 1.1//EN"
 "http://www.w3.org/Graphics/SVG/1.1/DTD/svg11.dtd">
<svg xmlns="http://www.w3.org/2000/svg" version="1.1"
  width="100%" height="100%" viewBox="0 0 1024 768"
  style="fill: none; font-family: Helvetica;
 font: Helvetica;
">

<!-- Creator: NGspice -->

<rect x="0" y="0" width="1024" height="768" fill="white" stroke="none"/>
<text stroke="none" fill="black" font-size="16" x="358" y="752">
frequency
</text>
<text stroke="none" fill="black" font-size="16" x="10" y="16">
ac1: ** sch_path: /foss/designs/ldo_project/ldo_top.sch
</text>
<path stroke="black" d="M70 704l0 -638"/>
<text stroke="none" fill="black" font-size="16" x="65" y="728">
1
</text>
<path stroke="black" stroke-dasharray="1,2" d="M129 704l0 -638M146 704l0 -638M158 704l0 -638"/>
<path stroke="black" d="M168 704l0 -638"/>
<text stroke="none" fill="black" font-size="16" x="158" y="728">
10
</text>
<path stroke="black" stroke-dasharray="1,2" d="M227 704l0 -638M244 704l0 -638M256 704l0 -638"/>
<path stroke="black" d="M266 704l0 -638"/>
<text stroke="none" fill="black" font-size="16" x="251" y="728">
100
</text>
<path stroke="black" stroke-dasharray="1,2" d="M325 704l0 -638M342 704l0 -638M354 704l0 -638"/>
<path stroke="black" d="M364 704l0 -638"/>
<text stroke="none" fill="black" font-size="16" x="344" y="728">
10^3
</text>
<path stroke="black" stroke-dasharray="1,2" d="M423 704l0 -638M440 704l0 -638M452 704l0 -638"/>
<path stroke="black" d="M462 704l0 -638"/>
<text stroke="none" fill="black" font-size="16" x="442" y="728">
10^4
</text>
<path stroke="black" stroke-dasharray="1,2" d="M521 704l0 -638M538 704l0 -638M550 704l0 -638"/>
<path stroke="black" d="M560 704l0 -638"/>
<text stroke="none" fill="black" font-size="16" x="540" y="728">
10^5
</text>
<path stroke="black" stroke-dasharray="1,2" d="M619 704l0 -638M636 704l0 -638M648 704l0 -638"/>
<path stroke="black" d="M658 704l0 -638"/>
<text stroke="none" fill="black" font-size="16" x="638" y="728">
10^6
</text>
<path stroke="black" stroke-dasharray="1,2" d="M717 704l0 -638M734 704l0 -638M746 704l0 -638"/>
<path stroke="black" d="M756 704l0 -638"/>
<text stroke="none" fill="black" font-size="16" x="736" y="728">
10^7
</text>
<path stroke="black" stroke-dasharray="1,2" d="M815 704l0 -638M832 704l0 -638M844 704l0 -638"/>
<path stroke="black" d="M854 704l0 -638"/>
<text stroke="none" fill="black" font-size="16" x="834" y="728">
10^8
</text>
<path stroke="black" stroke-dasharray="1,2" d="M913 704l0 -638M930 704l0 -638M942 704l0 -638"/>
<path stroke="black" d="M952 704l0 -638"/>
<text stroke="none" fill="black" font-size="16" x="932" y="728">
10^9
</text>
<text stroke="none" fill="black" font-size="16" x="614" y="752">
Hz
</text>
<path stroke="black" stroke-dasharray="1,2" d="M70 704l882 0"/>
<text stroke="none" fill="black" font-size="16" x="8" y="712">
-350.0
</text>
<path stroke="black" stroke-dasharray="1,2" d="M70 646l882 0"/>
<text stroke="none" fill="black" font-size="16" x="8" y="654">
-300.0
</text>
<path stroke="black" stroke-dasharray="1,2" d="M70 588l882 0"/>
<text stroke="none" fill="black" font-size="16" x="8" y="596">
-250.0
</text>
<path stroke="black" stroke-dasharray="1,2" d="M70 530l882 0"/>
<text stroke="none" fill="black" font-size="16" x="8" y="538">
-200.0
</text>
<path stroke="black" stroke-dasharray="1,2" d="M70 472l882 0"/>
<text stroke="none" fill="black" font-size="16" x="8" y="480">
-150.0
</text>
<path stroke="black" stroke-dasharray="1,2" d="M70 414l882 0"/>
<text stroke="none" fill="black" font-size="16" x="8" y="422">
-100.0
</text>
<path stroke="black" stroke-dasharray="1,2" d="M70 356l882 0"/>
<text stroke="none" fill="black" font-size="16" x="18" y="364">
-50.0
</text>
<path stroke="black" d="M70 298l882 0"/>
<text stroke="none" fill="black" font-size="16" x="38" y="306">
0.0
</text>
<path stroke="black" stroke-dasharray="1,2" d="M70 240l882 0"/>
<text stroke="none" fill="black" font-size="16" x="28" y="248">
50.0
</text>
<path stroke="black" stroke-dasharray="1,2" d="M70 182l882 0"/>
<text stroke="none" fill="black" font-size="16" x="18" y="190">
100.0
</text>
<path stroke="black" stroke-dasharray="1,2" d="M70 124l882 0"/>
<text stroke="none" fill="black" font-size="16" x="18" y="132">
150.0
</text>
<path stroke="black" stroke-dasharray="1,2" d="M70 66l882 0"/>
<text stroke="none" fill="black" font-size="16" x="18" y="74">
200.0
</text>
<text stroke="none" fill="black" font-size="16" x="10" y="32">
     
</text>
<path stroke="red" d="M441 23l44 0"/>
<text stroke="none" fill="black" font-size="16" x="495" y="32">
t_db
</text>
<path stroke="red" d="M70 200l127 0 5 1 49 0 5 1 10 0 5 1 5 0 5 1 5 0 4 1 5 0 40 8 4 1 25 5 5 2 15 3 4 1 5 1 5 2 30 6 5 2 4 1 20 4 5 2 20 4 4 1 5 2 25 5 5 2 10 2 4 1 15 3 5 2 25 5 4 2 25 5 5 2 15 3 4 1 5 1 5 2 20 4 5 2 10 2 4 2 10 2 5 2 5 1 5 2"/>
<path stroke="red" d="M707 303l5 1 10 4 5 1 4 2 20 8 5 3 15 6 5 3 4 2 5 2 5 3 10 4 5 3 5 2 5 3 5 2 5 3 4 2 5 3 5 2 5 1 5 2 5 1 10 0 5 1 5 6 4 8 5 7 15 18 5 5 5 6 5 5 10 12 4 6 5 8 5 11 5 3 5 -4 5 -2"/>
<path stroke="blue" d="M70 23l44 0"/>
<text stroke="none" fill="black" font-size="16" x="124" y="32">
t_ph
</text>
<path stroke="blue" d="M70 90l44 0 5 1 20 0 4 1 10 0 5 1 5 0 5 1 5 0 5 1 5 0 5 1 4 1 20 4 5 2 5 1 15 6 4 3 5 2 15 9 5 4 5 3 15 12 4 4 5 3 5 4 5 3 5 4 10 6 5 2 5 3 5 2 4 2 10 4 10 2 5 2 15 3 5 0 4 1 5 1 5 0 5 1 10 0 5 1 10 0 5 1 19 0 5 1 34 0"/>
<path stroke="blue" d="M491 193l5 1 44 0 5 1 20 0 5 1 14 0 5 1 5 0 5 1 5 0 5 1 5 0 15 3 4 1 10 2 5 2 5 1 20 8 5 3 4 3 10 6 25 20 5 5 5 4 4 5 5 5 5 4 5 5 5 4 5 5 10 8 5 5 5 4 9 9 10 8 10 10 5 4 10 10 5 4 4 5 10 10 5 6 5 8 5 9 5 15 5 27 10 106"/>
<path stroke="blue" d="M874 533l4 28 5 17 5 13 5 12 20 40 5 9 5 8 4 7 5 2 5 -20 5 -84 5 -20 5 4"/>
</svg>
