<?xml version="1.0" standalone="yes"?>
<!DOCTYPE svg PUBLIC "-//W3C//DTD SVG 1.1//EN"
 "http://www.w3.org/Graphics/SVG/1.1/DTD/svg11.dtd">
<svg xmlns="http://www.w3.org/2000/svg" version="1.1"
  width="100%" height="100%" viewBox="0 0 1024 768"
  style="fill: none; font-family: Helvetica;
 font: Helvetica;
">

<!-- Creator: NGspice -->

<rect x="0" y="0" width="1024" height="768" fill="white" stroke="none"/>
<text stroke="none" fill="black" font-size="16" x="358" y="752">
time
</text>
<text stroke="none" fill="black" font-size="16" x="10" y="16">
tran1: ** sch_path: /foss/designs/ldo_project/ldo_tran.sch
</text>
<path stroke="black" d="M50 704l0 -640"/>
<text stroke="none" fill="black" font-size="16" x="35" y="728">
0.0
</text>
<path stroke="black" stroke-dasharray="1,2" d="M142 704l0 -640"/>
<text stroke="none" fill="black" font-size="16" x="122" y="728">
10.0
</text>
<path stroke="black" stroke-dasharray="1,2" d="M234 704l0 -640"/>
<text stroke="none" fill="black" font-size="16" x="214" y="728">
20.0
</text>
<path stroke="black" stroke-dasharray="1,2" d="M326 704l0 -640"/>
<text stroke="none" fill="black" font-size="16" x="306" y="728">
30.0
</text>
<path stroke="black" stroke-dasharray="1,2" d="M418 704l0 -640"/>
<text stroke="none" fill="black" font-size="16" x="398" y="728">
40.0
</text>
<path stroke="black" stroke-dasharray="1,2" d="M510 704l0 -640"/>
<text stroke="none" fill="black" font-size="16" x="490" y="728">
50.0
</text>
<path stroke="black" stroke-dasharray="1,2" d="M602 704l0 -640"/>
<text stroke="none" fill="black" font-size="16" x="582" y="728">
60.0
</text>
<path stroke="black" stroke-dasharray="1,2" d="M694 704l0 -640"/>
<text stroke="none" fill="black" font-size="16" x="674" y="728">
70.0
</text>
<path stroke="black" stroke-dasharray="1,2" d="M786 704l0 -640"/>
<text stroke="none" fill="black" font-size="16" x="766" y="728">
80.0
</text>
<path stroke="black" stroke-dasharray="1,2" d="M878 704l0 -640"/>
<text stroke="none" fill="black" font-size="16" x="858" y="728">
90.0
</text>
<path stroke="black" stroke-dasharray="1,2" d="M970 704l0 -640"/>
<text stroke="none" fill="black" font-size="16" x="945" y="728">
100.0
</text>
<text stroke="none" fill="black" font-size="16" x="614" y="752">
us
</text>
<path stroke="black" stroke-dasharray="1,2" d="M50 704l920 0"/>
<text stroke="none" fill="black" font-size="16" x="8" y="712">
-0.2
</text>
<path stroke="black" d="M50 640l920 0"/>
<text stroke="none" fill="black" font-size="16" x="18" y="648">
0.0
</text>
<path stroke="black" stroke-dasharray="1,2" d="M50 576l920 0"/>
<text stroke="none" fill="black" font-size="16" x="18" y="584">
0.2
</text>
<path stroke="black" stroke-dasharray="1,2" d="M50 512l920 0"/>
<text stroke="none" fill="black" font-size="16" x="18" y="520">
0.4
</text>
<path stroke="black" stroke-dasharray="1,2" d="M50 448l920 0"/>
<text stroke="none" fill="black" font-size="16" x="18" y="456">
0.6
</text>
<path stroke="black" stroke-dasharray="1,2" d="M50 384l920 0"/>
<text stroke="none" fill="black" font-size="16" x="18" y="392">
0.8
</text>
<path stroke="black" stroke-dasharray="1,2" d="M50 320l920 0"/>
<text stroke="none" fill="black" font-size="16" x="18" y="328">
1.0
</text>
<path stroke="black" stroke-dasharray="1,2" d="M50 256l920 0"/>
<text stroke="none" fill="black" font-size="16" x="18" y="264">
1.2
</text>
<path stroke="black" stroke-dasharray="1,2" d="M50 192l920 0"/>
<text stroke="none" fill="black" font-size="16" x="18" y="200">
1.4
</text>
<path stroke="black" stroke-dasharray="1,2" d="M50 128l920 0"/>
<text stroke="none" fill="black" font-size="16" x="18" y="136">
1.6
</text>
<path stroke="black" stroke-dasharray="1,2" d="M50 64l920 0"/>
<text stroke="none" fill="black" font-size="16" x="18" y="72">
1.8
</text>
<text stroke="none" fill="black" font-size="16" x="10" y="32">
V
</text>
<path stroke="red" d="M460 23l46 0"/>
<text stroke="none" fill="black" font-size="16" x="516" y="32">
v(vldo)
</text>
<path stroke="red" d="M50 655l13 0 0 -1 3 0 0 -1 1 0 0 -1 1 0 0 -1 1 -1 0 -1 1 -1 1 0 0 -1 1 0 1 1M73 650l0 -2M73 650l1 2M74 653l0 -1M74 653l1 0 0 -1 1 0 2 -2 0 -1 1 -2 0 -2 1 -2 0 -7 1 -6 0 -7 1 -9 0 -11 1 -13 0 -16 1 -18 0 -21 1 -23 0 -25 1 -27"/>
<path stroke="red" d="M86 460l0 -59 1 -32 0 -32 1 -33 0 -34 1 -34 0 -33 1 -25 0 -15 1 -10 0 -17 1 -7 0 -8 1 -6 0 -7 1 -6 0 -6 1 -6 0 -6 1 -5 0 -4 1 1M97 78l0 -2M97 78l1 1M98 82l0 -3M98 82l1 3M99 97l0 -12M99 97l1 13M100 128l0 -18M100 128l1 16"/>
<path stroke="red" d="M101 152l0 -8M101 152l1 5M102 158l0 -1M102 158l1 1 867 0"/>
</svg>
