<?xml version="1.0" standalone="yes"?>
<!DOCTYPE svg PUBLIC "-//W3C//DTD SVG 1.1//EN"
 "http://www.w3.org/Graphics/SVG/1.1/DTD/svg11.dtd">
<svg xmlns="http://www.w3.org/2000/svg" version="1.1"
  width="100%" height="100%" viewBox="0 0 1024 768"
  style="fill: none; font-family: Helvetica;
 font: Helvetica;
">

<!-- Creator: NGspice -->

<rect x="0" y="0" width="1024" height="768" fill="white" stroke="none"/>
<text stroke="none" fill="black" font-size="16" x="358" y="752">
time
</text>
<text stroke="none" fill="black" font-size="16" x="10" y="16">
tran1: ** sch_path: /foss/designs/ldo_project/ldo_tran.sch
</text>
<path stroke="black" d="M90 704l0 -640"/>
<text stroke="none" fill="black" font-size="16" x="75" y="728">
0.0
</text>
<path stroke="black" stroke-dasharray="1,2" d="M174 704l0 -640"/>
<text stroke="none" fill="black" font-size="16" x="159" y="728">
5.0
</text>
<path stroke="black" stroke-dasharray="1,2" d="M258 704l0 -640"/>
<text stroke="none" fill="black" font-size="16" x="238" y="728">
10.0
</text>
<path stroke="black" stroke-dasharray="1,2" d="M342 704l0 -640"/>
<text stroke="none" fill="black" font-size="16" x="322" y="728">
15.0
</text>
<path stroke="black" stroke-dasharray="1,2" d="M426 704l0 -640"/>
<text stroke="none" fill="black" font-size="16" x="406" y="728">
20.0
</text>
<path stroke="black" stroke-dasharray="1,2" d="M510 704l0 -640"/>
<text stroke="none" fill="black" font-size="16" x="490" y="728">
25.0
</text>
<path stroke="black" stroke-dasharray="1,2" d="M594 704l0 -640"/>
<text stroke="none" fill="black" font-size="16" x="574" y="728">
30.0
</text>
<path stroke="black" stroke-dasharray="1,2" d="M678 704l0 -640"/>
<text stroke="none" fill="black" font-size="16" x="658" y="728">
35.0
</text>
<path stroke="black" stroke-dasharray="1,2" d="M762 704l0 -640"/>
<text stroke="none" fill="black" font-size="16" x="742" y="728">
40.0
</text>
<path stroke="black" stroke-dasharray="1,2" d="M846 704l0 -640"/>
<text stroke="none" fill="black" font-size="16" x="826" y="728">
45.0
</text>
<path stroke="black" stroke-dasharray="1,2" d="M930 704l0 -640"/>
<text stroke="none" fill="black" font-size="16" x="910" y="728">
50.0
</text>
<text stroke="none" fill="black" font-size="16" x="614" y="752">
us
</text>
<path stroke="black" stroke-dasharray="1,2" d="M90 704l840 0"/>
<text stroke="none" fill="black" font-size="16" x="18" y="712">
1.50102
</text>
<path stroke="black" stroke-dasharray="1,2" d="M90 640l840 0"/>
<text stroke="none" fill="black" font-size="16" x="18" y="648">
1.50104
</text>
<path stroke="black" stroke-dasharray="1,2" d="M90 576l840 0"/>
<text stroke="none" fill="black" font-size="16" x="18" y="584">
1.50106
</text>
<path stroke="black" stroke-dasharray="1,2" d="M90 512l840 0"/>
<text stroke="none" fill="black" font-size="16" x="18" y="520">
1.50108
</text>
<path stroke="black" stroke-dasharray="1,2" d="M90 448l840 0"/>
<text stroke="none" fill="black" font-size="16" x="18" y="456">
1.50110
</text>
<path stroke="black" stroke-dasharray="1,2" d="M90 384l840 0"/>
<text stroke="none" fill="black" font-size="16" x="18" y="392">
1.50112
</text>
<path stroke="black" stroke-dasharray="1,2" d="M90 320l840 0"/>
<text stroke="none" fill="black" font-size="16" x="18" y="328">
1.50114
</text>
<path stroke="black" stroke-dasharray="1,2" d="M90 256l840 0"/>
<text stroke="none" fill="black" font-size="16" x="18" y="264">
1.50116
</text>
<path stroke="black" stroke-dasharray="1,2" d="M90 192l840 0"/>
<text stroke="none" fill="black" font-size="16" x="18" y="200">
1.50118
</text>
<path stroke="black" stroke-dasharray="1,2" d="M90 128l840 0"/>
<text stroke="none" fill="black" font-size="16" x="18" y="136">
1.50120
</text>
<path stroke="black" stroke-dasharray="1,2" d="M90 64l840 0"/>
<text stroke="none" fill="black" font-size="16" x="18" y="72">
1.50122
</text>
<text stroke="none" fill="black" font-size="16" x="10" y="32">
V
</text>
<path stroke="red" d="M420 23l42 0"/>
<text stroke="none" fill="black" font-size="16" x="472" y="32">
v(vldo)
</text>
<path stroke="red" d="M90 645l0 -572 1 -3M91 412l0 -342M91 412l1 53M92 602l0 -137M92 602l1 11M93 638l0 -25M93 638l1 3M94 644l0 -3M94 644l1 0M95 645l0 -1M95 645l835 0"/>
</svg>
